ply
format ascii 1.0
comment created by ic2ply
element vertex 498
property float32 x
property float32 y
property float32 z
element face 992
property list uint8 int32 vertex_indices
end_header
18.4173 23.7271 13.1896
17.8629 23.7744 13.2589
17.2934 23.8052 13.2793
16.737 23.8342 13.2806
16.2016 23.8483 13.2708
15.7187 23.8959 13.2223
15.9234 24.3306 13.0034
17.5605 23.3132 13.2494
16.9855 23.3417 13.2279
16.4033 23.3579 13.2391
15.8046 23.3718 13.2742
16.7198 24.6441 12.7755
17.0129 24.2808 13.1239
17.295 24.5998 12.7917
17.5853 24.2272 13.1018
17.8566 24.5188 12.7341
18.1609 24.1704 12.9989
17.0225 24.8421 12.3696
18.4196 24.4137 12.5499
16.7142 22.9046 13.0617
18.0934 24.6547 12.2687
17.5655 24.7819 12.3373
17.3381 24.8616 11.8662
16.4517 24.3103 13.0962
16.4913 20.0946 11.3907
16.8501 18.3184 10.7206
17.3913 18.5211 10.7345
16.3785 18.6457 10.7666
16.8971 18.8292 10.8354
17.4336 19.0095 10.8677
17.9403 19.2225 10.8587
17.876 18.219 10.7465
17.9411 18.7013 10.7319
16.9295 19.296 11.0389
17.453 19.4896 11.07
16.5598 20.6182 11.5486
18.4557 20.501 11.0286
16.4364 19.6057 11.1703
16.9659 19.764 11.2639
17.4982 19.9682 11.2646
18.4579 19.4351 10.7989
18.4613 19.9479 10.9189
17.9709 19.7133 11.024
18.0053 20.22 11.1731
17.5561 20.4675 11.4037
17.021 20.2439 11.4544
19.226 22.2219 13.285
18.4059 21.8115 13.0104
18.9235 21.7459 13.1969
19.7119 21.1644 13.2706
18.9144 20.8037 13.1508
19.1807 21.245 13.2385
19.4739 21.7022 13.2849
18.1288 23.273 13.2807
18.6412 21.275 13.0391
18.1571 21.3664 12.8177
17.3353 22.0004 12.6914
18.9586 22.7126 13.285
18.67 22.2561 13.1979
18.4017 22.7684 13.2373
18.1371 22.3345 13.0528
17.5909 22.4073 12.9218
17.0246 22.4594 12.8544
19.9954 21.6437 13.1439
17.8944 21.9155 12.8289
19.4183 20.6879 13.2806
17.2855 22.8764 13.0756
17.8471 22.8275 13.1456
16.8019 24.9012 11.8903
16.4506 24.8511 12.305
14.853 24.3808 11.8965
15.1861 24.4097 11.4451
16.7069 24.5078 11.0639
16.8153 24.1181 10.7923
16.2277 24.3149 10.934
15.8463 23.9399 10.7818
15.3325 24.62 12.0121
15.3565 24.0373 10.9334
14.9195 24.0379 11.1356
16.7465 23.5644 10.7311
16.1436 23.378 10.7478
16.3466 23.8564 10.7306
15.6676 24.3887 11.1356
16.5711 24.7772 11.4692
16.1946 24.8456 11.8257
15.8589 24.7758 12.1887
15.6725 24.6769 11.6278
16.1557 24.6508 12.68
15.5744 23.5075 10.7206
16.1165 24.6329 11.307
17.0937 24.7293 11.3825
15.5901 24.5709 12.5636
19.3828 23.0406 10.8813
18.8268 23.1228 10.7375
18.4891 24.5222 11.9437
19.3133 23.8412 11.4848
17.8885 24.7406 11.8388
18.2602 23.1445 10.7276
17.5916 24.6625 11.3934
18.8661 24.2805 12.2709
18.5614 22.6114 10.7668
18.9807 24.209 11.7457
17.2619 23.8316 10.7274
17.7197 23.4444 10.7256
18.167 23.6834 10.7556
18.6521 23.6177 10.8325
19.167 23.5191 11.0104
19.6096 23.3987 11.2988
18.6016 24.3125 11.4381
18.1658 24.5285 11.466
17.8614 24.3645 11.0832
18.8791 23.9588 11.1874
18.3329 24.1068 11.0185
17.2906 24.3727 10.9691
17.7389 24.0034 10.8041
15.0193 21.2944 13.0142
15.3784 22.3423 13.0834
15.6711 21.9175 12.8438
16.19 22.0106 12.7129
14.6309 20.5806 13.1834
14.6667 21.6666 13.1928
15.9319 21.4852 12.6313
16.4581 21.5876 12.517
15.6533 20.9215 12.6978
16.1745 21.0521 12.5009
14.1694 21.4667 13.2834
16.0065 20.5089 12.6051
15.6009 22.8542 13.184
14.2905 22.0334 13.285
16.7551 22.0386 12.6504
16.1434 22.9103 13.1114
16.4534 22.4732 12.8729
14.8376 22.201 13.214
15.4552 21.3651 12.8134
15.134 20.801 12.9527
15.179 21.8249 13.0211
15.5128 20.3926 12.8269
14.6009 21.0917 13.1808
15.905 22.4286 12.9577
20.4865 21.608 11.3662
18.4403 21.0892 11.0703
20.1127 20.8837 10.8948
19.2344 21.1115 10.7554
19.7187 21.391 10.7389
19.2672 22.157 10.7192
20.6148 21.8214 11.8602
19.7624 21.9424 10.7869
19.2378 21.6673 10.7374
20.1812 21.9132 11.0527
18.863 20.8115 10.874
19.6176 22.5322 10.8319
18.7525 22.0517 10.8183
20.0399 22.4057 11.0841
18.8974 20.2313 10.8138
19.0582 22.6142 10.7198
19.8973 20.3191 10.813
19.6852 20.8448 10.7294
19.3335 20.5006 10.7296
18.7993 21.442 10.8834
20.1536 21.4224 10.9428
19.411 19.9616 10.7212
20.4057 22.1647 11.4711
20.4637 21.056 11.249
13.1594 20.0708 11.4092
12.936 20.4824 11.8488
13.0397 19.9575 11.875
13.3587 19.1657 12.1565
13.6523 18.9244 12.5716
13.4345 20.3368 10.9863
13.1691 19.6193 12.2425
13.0299 20.1809 12.3459
12.9623 20.688 12.3695
14.0545 19.8285 13.2561
13.2441 19.5235 11.631
13.4702 19.7846 11.0994
14.5505 20.0389 13.2514
13.5904 20.7261 13.1641
14.0888 20.3803 13.2843
13.2064 21.0235 12.8456
14.1222 20.8926 13.2838
13.6 20.2034 13.1189
13.2182 20.4767 12.8128
13.6356 19.6931 13.0244
13.6914 21.2332 13.2129
13.4598 19.3761 12.6744
13.9182 19.2598 13.0711
13.273 19.9228 12.7159
17.9988 21.3497 11.2618
18.0389 20.7673 11.257
16.0974 21.0337 11.4805
16.0045 21.9026 11.2811
16.2916 21.5502 11.4651
16.6203 22.0352 11.3491
17.8409 21.906 11.1983
17.5093 21.5335 11.4165
17.2793 21.9612 11.3396
18.3606 21.6814 11.0402
16.8725 21.6469 11.4963
17.6057 20.9902 11.4474
17.1327 21.231 11.5573
16.6184 21.1323 11.5841
17.0877 20.7373 11.561
17.2046 23.2874 10.7839
18.0538 22.6568 10.8701
16.2627 22.3345 11.1683
16.6666 22.6113 11.0805
17.0592 22.3359 11.2066
17.6183 22.3948 11.0811
18.2182 22.1918 10.9685
17.6788 22.9522 10.8452
17.1887 22.7955 10.9747
16.6678 23.0899 10.8629
18.2412 17.4532 12.4472
17.7858 17.2397 12.2488
18.7788 17.6643 11.7162
17.6874 17.4212 12.7236
17.2218 17.5609 12.9907
18.1077 17.6747 12.8772
17.6911 17.8325 13.1266
18.2562 18.0805 13.1438
18.5983 17.8091 12.7602
18.7817 18.2514 13.0568
19.2737 18.4807 12.9248
18.3078 17.5322 11.4482
19.0546 18.0081 12.6245
18.7419 17.6366 12.2655
16.7436 17.7856 13.1701
17.2358 18.0541 13.2587
17.7843 18.3197 13.2793
18.3302 18.5665 13.2771
18.3169 17.3935 11.9502
17.2382 17.2307 12.5272
17.3097 18.5826 13.2558
17.849 18.8419 13.2394
18.3816 19.0954 13.2568
18.8503 18.7533 13.2416
14.7619 20.7087 10.8779
15.6308 20.8471 11.2931
14.3499 20.4038 10.7381
14.9177 19.5983 10.778
14.8656 20.1284 10.8533
16.3916 19.1457 10.949
15.4078 18.7674 10.7241
15.393 19.8668 10.9907
15.9777 19.9383 11.2174
14.9414 18.4643 10.801
13.8707 20.0822 10.7732
14.3933 19.8508 10.7213
15.8847 19.4874 11.0097
15.8901 18.9805 10.82
15.4035 19.3231 10.8313
14.9274 19.0387 10.7195
14.4304 19.3004 10.7338
15.8934 18.4355 10.7193
15.2067 20.4767 11.0524
15.4172 18.2155 10.7864
15.6266 20.3004 11.2055
16.0741 20.4839 11.4158
15.8466 17.4633 11.2458
16.7997 17.3421 11.2376
16.8101 17.1163 11.7403
16.2949 17.1197 11.9996
17.3141 17.2321 11.4953
17.3027 17.119 12.0114
18.2156 17.8378 11.0131
17.8289 17.2539 11.7439
15.4664 17.7508 11.0612
16.3258 17.24 11.4674
16.7699 17.1208 12.2825
16.2837 17.2542 12.555
15.4064 17.3455 11.9504
15.8286 17.2425 12.2734
17.8042 17.4519 11.281
17.2626 17.5239 11.0545
17.7086 17.775 10.9187
16.8075 17.7615 10.847
17.2912 18.0145 10.7579
15.9079 17.8934 10.8438
16.7512 17.3642 12.797
15.78 17.483 12.7599
16.3292 17.5711 11.0104
15.8236 17.2517 11.6999
16.3704 18.0886 10.7382
17.8689 20.9687 12.6609
17.3459 21.1382 12.4824
17.6403 21.5187 12.6273
17.0517 21.5911 12.5053
19.2071 20.2118 13.2675
18.7285 20.382 13.1108
18.3649 20.7877 12.9025
16.5084 20.6309 12.46
16.4494 20.1232 12.6087
18.8456 19.8394 13.227
18.3502 20.1487 12.9944
17.9085 19.8558 12.9086
17.4103 19.5745 12.8876
16.9359 19.8068 12.719
16.7244 21.1689 12.4162
17.0167 20.762 12.432
16.9802 20.2762 12.5357
17.4965 20.5866 12.5578
17.4699 20.0773 12.6913
18.9001 19.3134 13.2842
18.3813 19.6136 13.1422
17.8877 19.3467 13.0906
17.9613 20.4155 12.7657
20.3388 20.6093 12.8903
19.924 20.6168 13.202
20.5224 20.1161 11.5538
20.2247 19.9386 11.143
20.5396 21.093 12.631
20.0717 19.1791 12.6272
19.3891 19.6136 13.2672
20.7081 20.9227 12.0834
20.6677 21.2667 11.7189
20.6561 21.4539 12.2595
19.6978 20.1108 13.2445
20.3397 19.3446 12.1128
19.8281 19.7622 10.8663
20.1732 20.115 12.9682
20.5298 19.8235 12.0635
19.9404 19.6454 13.0301
20.1911 21.1203 13.0513
20.6009 20.6019 12.4602
20.4874 20.1171 12.5318
20.6569 20.3443 12.0104
20.3464 20.4748 11.1431
20.3052 19.643 12.5997
20.6239 20.683 11.5849
20.3635 19.5846 11.5752
13.9764 18.4529 12.5033
14.417 18.9374 13.1996
14.0173 18.7961 12.9007
14.9459 17.5555 11.9823
14.0098 19.0177 10.9784
15.2832 17.5216 11.4797
14.83 18.0796 12.9314
13.6671 18.6631 12.0707
14.5766 18.2131 11.1203
14.7726 17.7739 11.5166
14.3948 18.4237 12.9289
15.0123 17.9472 11.0889
13.9253 19.546 10.8395
14.0891 18.186 12.0948
14.4073 18.0637 12.538
15.3193 17.4707 12.4464
14.5027 17.8348 12.0378
14.1567 18.5091 11.2048
14.3237 18.0752 11.5738
13.9169 18.4194 11.692
13.5796 19.2966 11.2215
13.7479 18.7986 11.4178
14.4799 18.7441 10.8469
13.4595 19.039 11.7111
14.8456 17.7345 12.4989
19.7216 18.7366 12.7099
18.9612 19.1689 10.7229
19.7195 19.2031 13.0235
20.021 19.3844 11.1648
19.867 18.6473 11.6685
19.5391 18.2195 11.8463
19.8004 18.516 12.2076
19.4632 18.2502 12.4476
18.6943 17.9035 11.1985
19.3293 18.9843 13.1597
19.4879 18.4383 11.3223
19.1781 17.8951 12.0809
18.9754 19.6813 10.7352
19.159 18.0052 11.5171
20.1485 19.0882 11.6374
19.7761 18.9365 11.1877
19.4982 19.3412 10.8109
18.8429 18.6535 10.7867
18.4137 18.9049 10.7231
20.0813 18.8937 12.1826
18.4371 18.3037 10.8048
19.3414 18.799 10.9273
19.0221 18.2865 11.0548
13.0709 22.05 12.2798
12.9353 21.5777 12.0137
13.3011 21.9842 12.7909
13.3828 21.5158 12.9938
13.3192 22.4954 11.4776
13.7949 21.2409 10.7565
13.7694 21.8499 13.1998
13.0329 21.5504 11.5188
13.0901 20.5911 11.3639
13.582 22.3302 11.0362
13.6456 22.8938 11.2789
13.0736 22.069 11.7355
12.9053 21.0173 11.8254
13.0834 21.0821 11.3388
13.0714 21.5605 12.5664
12.9464 21.1472 12.3483
13.3476 21.4417 11.0339
13.3175 22.4806 12.5361
13.21 22.5415 12.0122
13.4125 20.8816 10.9527
13.8558 20.6494 10.7438
13.6906 21.7968 10.8346
13.2784 21.9531 11.2324
13.4561 22.9792 11.7813
13.5959 22.3146 12.9863
14.2555 23.4362 12.9257
13.8047 23.3407 11.5082
13.7008 23.3712 12.1009
13.9975 22.4462 13.1969
13.4712 22.952 12.3353
14.6437 23.1175 13.2453
15.2258 23.2434 13.2852
14.3539 24.0426 11.9284
14.6192 24.1041 11.4908
15.2688 23.7433 13.2018
13.685 22.8203 12.8259
14.4961 22.5959 13.2831
15.0434 22.7313 13.2564
13.8495 23.2979 12.6234
14.1055 23.7396 12.3868
14.2155 23.7203 11.4047
13.9894 23.7019 11.8685
15.3906 24.2385 12.9155
14.9231 24.062 12.846
15.0721 24.411 12.44
14.7717 23.593 13.1208
14.1124 22.9742 13.0919
14.4671 23.844 12.7259
14.5945 24.1604 12.3509
16.4056 19.64 12.8219
15.9366 19.9951 12.7783
15.4497 19.8544 12.9965
14.846 18.5687 13.2135
17.3654 19.0871 13.0975
16.8828 19.3355 12.9448
16.3616 19.1517 13.0557
15.9004 19.4896 12.9898
15.4084 19.3262 13.171
14.9583 19.6814 13.2016
15.0439 20.2388 13.0637
14.4343 19.4631 13.2821
16.8343 18.8509 13.1601
16.3117 18.6383 13.2426
15.8543 18.9716 13.1921
15.3517 18.7728 13.2822
16.2572 17.5903 13.0015
16.7737 18.3293 13.2831
16.2695 18.0827 13.2615
15.8058 18.4203 13.2849
15.3009 18.2235 13.1984
15.7709 17.8874 13.1335
15.289 17.7707 12.8846
14.9117 19.1318 13.2823
15.2058 21.0466 11.0921
14.2776 21.0034 10.7378
14.7256 21.2431 10.8656
14.2245 21.6094 10.7225
14.7278 21.7267 10.825
14.0396 22.1822 10.7535
15.5345 21.9777 11.0892
14.5186 22.1843 10.7303
14.8505 22.6378 10.7337
15.2095 21.5615 11.0466
15.0689 22.1198 10.8759
15.3617 22.5507 10.8546
14.346 22.7308 10.7536
13.9218 22.716 10.924
14.6206 23.1869 10.7805
15.6983 21.4159 11.2932
15.1697 23.0805 10.7227
15.8072 22.4379 11.0168
15.7027 22.9898 10.799
15.0365 23.5929 10.7998
14.5407 23.6544 11.0405
14.1168 23.2382 11.0488
16.1843 22.8514 10.9226
18.6961 24.075 12.8214
18.9326 23.6491 13.0426
19.3808 23.5313 12.8195
19.9592 22.5944 12.9123
20.2074 22.0914 12.8679
19.8494 22.9273 11.174
19.9877 23.1757 11.6611
19.5213 22.7045 13.1702
19.7573 22.1657 13.1868
20.4024 21.5875 12.7749
19.1555 23.9441 12.5679
19.6883 23.6124 11.8186
19.3391 23.9699 12.0568
19.9428 23.2925 12.2137
19.6164 23.6165 12.3899
18.6916 23.2239 13.2696
19.2356 23.154 13.1476
20.0748 22.9158 12.5206
20.5213 21.968 12.3926
20.2489 22.8415 12.0251
20.2218 22.677 11.5216
20.4686 22.352 11.9641
20.3235 22.4588 12.4763
19.7243 23.1447 12.8048
3 277 282 280
3 25 275 282
3 282 275 280
3 274 273 276
3 276 273 275
3 273 274 272
3 352 251 245
3 255 242 253
3 255 245 242
3 282 253 27
3 282 277 253
3 277 255 253
3 26 276 25
3 25 276 275
3 31 276 26
3 31 274 276
3 264 274 31
3 32 375 31
3 264 272 274
3 377 363 375
3 375 264 31
3 377 375 372
3 342 252 334
3 352 252 251
3 242 245 251
3 352 334 252
3 250 242 251
3 250 249 242
3 249 253 242
3 27 25 282
3 249 27 253
3 28 25 27
3 28 26 25
3 29 26 28
3 29 32 26
3 32 31 26
3 30 32 29
3 373 32 30
3 375 32 373
3 372 375 373
3 376 377 372
3 371 370 376
3 356 376 372
3 370 371 358
3 246 247 342
3 342 247 252
3 240 239 247
3 247 239 252
3 239 251 252
3 250 251 239
3 40 373 30
3 356 373 40
3 41 367 40
3 356 372 373
3 371 376 356
3 367 371 356
3 318 371 160
3 318 358 371
3 397 398 168
3 246 398 238
3 247 246 238
3 246 168 398
3 236 240 238
3 238 240 247
3 367 356 40
3 160 371 367
3 153 160 367
3 156 155 157
3 155 160 157
3 155 318 160
3 397 394 383
3 398 397 383
3 452 398 383
3 452 238 398
3 453 236 452
3 452 236 238
3 142 143 156
3 157 142 156
3 141 156 143
3 156 141 155
3 141 326 155
3 326 141 162
3 394 399 383
3 394 400 399
3 454 383 399
3 454 452 383
3 455 453 454
3 454 453 452
3 147 143 142
3 147 146 143
3 148 159 146
3 143 159 141
3 146 159 143
3 162 141 159
3 387 399 400
3 456 399 387
3 456 454 399
3 458 454 456
3 455 454 458
3 459 461 458
3 461 455 458
3 461 459 462
3 100 154 151
3 151 154 144
3 146 147 144
3 147 151 144
3 150 152 146
3 144 150 146
3 464 463 456
3 456 463 458
3 459 458 463
3 465 459 463
3 467 459 465
3 467 469 462
3 467 462 459
3 468 462 469
3 209 97 203
3 100 97 93
3 154 100 93
3 100 203 97
3 92 154 93
3 92 150 154
3 479 150 92
3 154 150 144
3 472 463 464
3 465 463 472
3 471 465 472
3 470 465 471
3 467 465 470
3 88 467 470
3 469 467 88
3 75 80 88
3 80 469 88
3 202 211 79
3 79 80 81
3 102 202 79
3 102 103 202
3 103 102 114
3 97 209 103
3 97 103 104
3 105 97 104
3 105 93 97
3 106 93 105
3 106 107 92
3 106 92 93
3 479 92 107
3 78 470 471
3 77 470 78
3 77 88 470
3 75 88 77
3 75 81 80
3 74 73 81
3 75 74 81
3 73 79 81
3 113 114 102
3 73 113 102
3 73 102 79
3 112 104 114
3 114 104 103
3 111 105 112
3 112 105 104
3 106 105 111
3 72 113 73
3 72 73 74
3 281 267 261
3 260 261 267
3 259 260 267
3 262 260 259
3 262 263 260
3 263 262 265
3 338 341 339
3 335 341 266
3 335 339 341
3 280 258 277
3 280 267 258
3 258 266 277
3 258 335 266
3 275 259 280
3 280 259 267
3 273 262 259
3 275 273 259
3 265 262 272
3 264 223 272
3 272 262 273
3 223 265 272
3 214 223 363
3 368 214 363
3 214 368 366
3 349 347 348
3 245 341 338
3 352 245 338
3 338 347 352
3 338 348 347
3 255 341 245
3 255 266 341
3 266 255 277
3 363 223 264
3 368 363 377
3 375 363 264
3 365 368 377
3 376 365 377
3 360 368 365
3 360 366 368
3 360 365 359
3 353 350 351
3 347 351 334
3 334 350 342
3 351 350 334
3 349 351 347
3 347 334 352
3 249 250 248
3 241 27 249
3 248 241 249
3 28 27 241
3 33 28 241
3 34 29 33
3 33 29 28
3 30 29 34
3 365 376 370
3 369 374 359
3 358 369 370
3 369 359 370
3 370 359 365
3 374 369 317
3 173 174 350
3 353 173 350
3 350 174 342
3 342 174 246
3 239 240 243
3 244 248 243
3 243 250 239
3 248 250 243
3 37 248 244
3 37 241 248
3 38 33 37
3 37 33 241
3 39 34 38
3 38 34 33
3 42 30 34
3 39 42 34
3 42 40 30
3 41 40 42
3 369 358 329
3 309 358 318
3 320 317 329
3 329 317 369
3 164 386 163
3 168 163 386
3 174 163 168
3 397 168 386
3 173 163 174
3 174 168 246
3 243 240 254
3 254 240 236
3 256 243 254
3 256 244 243
3 257 244 256
3 257 24 244
3 24 37 244
3 24 38 37
3 24 45 38
3 39 38 45
3 44 39 45
3 43 39 44
3 36 41 43
3 43 42 39
3 43 41 42
3 36 153 41
3 153 367 41
3 157 160 153
3 329 358 309
3 309 318 155
3 308 329 309
3 308 320 329
3 390 391 386
3 164 390 386
3 394 397 391
3 391 397 386
3 254 236 451
3 451 236 453
3 237 254 451
3 237 256 254
3 237 257 256
3 237 189 257
3 188 43 44
3 36 43 188
3 187 140 188
3 140 36 188
3 149 153 36
3 140 149 36
3 153 149 157
3 157 149 142
3 309 155 326
3 328 308 326
3 162 328 326
3 308 309 326
3 390 385 391
3 390 379 385
3 400 394 385
3 385 394 391
3 451 453 460
3 460 453 455
3 466 237 451
3 460 466 451
3 189 237 466
3 190 191 466
3 191 189 466
3 191 190 192
3 195 193 194
3 187 193 196
3 140 187 196
3 187 194 193
3 158 140 196
3 158 149 140
3 142 158 147
3 142 149 158
3 139 148 161
3 139 159 148
3 139 314 162
3 139 162 159
3 389 385 379
3 389 400 385
3 389 382 400
3 382 387 400
3 382 388 387
3 464 387 388
3 460 455 461
3 457 461 462
3 457 460 461
3 466 460 457
3 468 190 457
3 457 190 466
3 192 190 204
3 205 206 192
3 205 192 204
3 193 195 207
3 207 195 206
3 210 206 205
3 208 193 207
3 208 196 193
3 196 208 151
3 158 196 151
3 151 208 100
3 158 151 147
3 161 148 152
3 152 148 146
3 494 161 152
3 495 145 161
3 401 404 388
3 382 401 388
3 387 464 456
3 388 404 472
3 457 462 468
3 473 468 469
3 473 204 468
3 204 190 468
3 211 205 473
3 473 205 204
3 210 205 211
3 210 207 206
3 203 207 209
3 203 208 207
3 207 210 209
3 208 203 100
3 152 479 494
3 152 150 479
3 493 495 494
3 494 495 161
3 405 404 401
3 418 472 404
3 405 419 404
3 388 472 464
3 419 418 404
3 471 472 418
3 473 469 80
3 211 80 79
3 211 473 80
3 209 202 103
3 210 211 202
3 210 202 209
3 107 106 95
3 485 107 95
3 485 480 107
3 480 479 107
3 480 494 479
3 493 494 480
3 410 418 419
3 411 78 471
3 410 70 411
3 418 410 411
3 418 411 471
3 71 78 411
3 71 77 78
3 82 77 71
3 82 75 77
3 74 75 82
3 114 113 110
3 109 112 110
3 110 112 114
3 108 111 112
3 109 108 112
3 101 111 108
3 101 95 111
3 95 106 111
3 486 95 101
3 485 95 486
3 76 71 70
3 86 71 76
3 70 71 411
3 82 71 86
3 89 82 86
3 89 74 82
3 89 83 72
3 89 72 74
3 98 113 90
3 90 113 72
3 110 113 98
3 96 109 98
3 98 109 110
3 94 109 96
3 94 108 109
3 101 108 94
3 345 270 271
3 269 271 261
3 261 271 281
3 267 281 258
3 268 269 261
3 260 268 261
3 268 260 263
3 231 268 263
3 213 263 265
3 230 213 265
3 213 231 263
3 217 215 212
3 340 330 344
3 333 354 346
3 339 333 346
3 339 346 348
3 281 270 335
3 335 270 333
3 335 333 339
3 281 335 258
3 230 265 223
3 230 223 214
3 225 212 230
3 225 230 214
3 225 214 366
3 224 225 366
3 332 167 330
3 343 349 348
3 346 343 348
3 343 337 349
3 343 330 337
3 339 348 338
3 362 224 366
3 360 362 366
3 361 360 359
3 361 362 360
3 337 353 351
3 337 167 166
3 337 166 353
3 337 351 349
3 374 361 359
3 374 355 361
3 311 355 374
3 317 311 374
3 186 170 169
3 166 173 353
3 166 169 173
3 169 165 173
3 311 317 327
3 327 317 320
3 165 170 164
3 163 165 164
3 170 171 164
3 165 163 173
3 24 257 35
3 201 45 35
3 35 45 24
3 44 45 201
3 320 308 325
3 324 320 325
3 327 320 324
3 324 325 323
3 171 390 164
3 171 393 390
3 35 189 200
3 35 257 189
3 201 200 199
3 201 35 200
3 198 44 201
3 199 198 201
3 198 188 44
3 194 187 198
3 313 328 314
3 325 308 328
3 313 323 325
3 328 313 325
3 393 379 390
3 393 392 379
3 200 189 191
3 197 191 192
3 197 199 200
3 197 200 191
3 198 199 194
3 194 199 197
3 194 197 195
3 188 198 187
3 314 139 145
3 314 328 162
3 315 314 145
3 315 313 314
3 378 379 392
3 378 396 389
3 378 389 379
3 382 389 396
3 206 195 192
3 195 197 192
3 492 495 496
3 492 145 495
3 145 139 161
3 315 145 492
3 380 395 378
3 396 401 382
3 396 395 407
3 396 407 401
3 496 493 491
3 496 495 493
3 405 401 407
3 416 405 407
3 417 419 405
3 416 417 405
3 487 485 488
3 487 480 485
3 487 493 480
3 487 491 493
3 410 419 417
3 425 426 417
3 426 70 410
3 417 426 410
3 486 101 99
3 484 486 99
3 488 486 484
3 488 485 486
3 422 76 70
3 426 422 70
3 91 76 422
3 91 85 76
3 85 86 76
3 85 84 86
3 84 89 86
3 83 89 84
3 83 90 72
3 68 90 83
3 22 98 90
3 96 98 22
3 21 96 22
3 20 96 21
3 18 94 20
3 20 94 96
3 99 101 94
3 18 99 94
3 69 84 85
3 68 83 84
3 69 68 84
3 17 22 68
3 68 22 90
3 21 22 17
3 271 270 281
3 443 279 269
3 271 279 345
3 269 279 271
3 278 269 268
3 278 443 269
3 215 216 231
3 231 216 278
3 231 278 268
3 212 215 213
3 213 215 231
3 212 213 230
3 344 343 346
3 354 344 346
3 354 336 344
3 336 340 344
3 345 333 270
3 345 354 333
3 449 354 345
3 449 345 279
3 216 215 218
3 219 218 217
3 217 218 215
3 220 212 225
3 220 219 217
3 220 217 212
3 221 220 224
3 224 220 225
3 330 167 337
3 340 332 330
3 332 340 331
3 343 344 330
3 340 430 331
3 430 340 336
3 222 224 362
3 222 221 224
3 355 362 361
3 355 222 362
3 332 185 167
3 167 185 184
3 167 184 166
3 185 332 331
3 364 222 355
3 357 364 355
3 321 357 311
3 311 357 355
3 169 170 165
3 184 169 166
3 184 186 169
3 182 186 184
3 321 327 319
3 321 311 327
3 186 180 181
3 170 186 181
3 170 181 171
3 180 186 182
3 291 290 126
3 299 298 290
3 291 299 290
3 301 300 299
3 299 300 298
3 305 300 301
3 319 327 324
3 306 319 324
3 307 319 306
3 306 324 323
3 181 178 171
3 171 178 393
3 123 126 124
3 124 126 290
3 297 290 298
3 297 124 290
3 284 297 298
3 300 284 298
3 283 300 305
3 283 284 300
3 322 306 310
3 322 307 306
3 306 323 310
3 310 323 313
3 178 392 393
3 392 381 380
3 178 381 392
3 384 380 381
3 121 123 124
3 122 121 124
3 297 122 124
3 297 286 122
3 285 286 284
3 284 286 297
3 55 285 283
3 283 285 284
3 63 322 483
3 483 322 310
3 310 315 483
3 310 313 315
3 380 378 392
3 380 402 395
3 406 402 384
3 384 402 380
3 121 122 118
3 129 122 286
3 129 118 122
3 56 129 286
3 285 56 286
3 56 285 64
3 492 496 478
3 63 483 478
3 483 492 478
3 315 492 483
3 395 396 378
3 406 413 402
3 402 413 395
3 413 407 395
3 478 496 477
3 477 496 491
3 424 416 413
3 413 416 407
3 403 416 424
3 403 417 416
3 497 488 476
3 497 487 488
3 477 491 497
3 497 491 487
3 425 417 403
3 423 425 403
3 421 425 423
3 421 426 425
3 475 484 474
3 474 484 99
3 476 484 475
3 476 488 484
3 420 422 421
3 421 422 426
3 6 91 420
3 420 91 422
3 87 91 6
3 23 87 6
3 87 85 91
3 12 11 23
3 23 11 87
3 14 13 12
3 12 13 11
3 14 15 13
3 13 15 21
3 15 20 21
3 16 18 15
3 15 18 20
3 474 18 16
3 474 99 18
3 69 85 87
3 11 69 87
3 11 17 69
3 13 17 11
3 69 17 68
3 21 17 13
3 448 279 443
3 226 443 278
3 226 445 443
3 226 278 216
3 449 336 354
3 447 336 449
3 448 447 449
3 448 449 279
3 448 446 447
3 445 446 448
3 444 445 226
3 443 445 448
3 227 216 218
3 227 226 216
3 444 226 227
3 228 218 219
3 228 227 218
3 221 219 220
3 229 228 219
3 229 219 221
3 450 331 430
3 447 430 336
3 447 442 430
3 442 450 430
3 441 442 446
3 446 442 447
3 440 446 445
3 440 441 446
3 440 445 444
3 439 440 444
3 232 444 227
3 232 439 444
3 232 227 228
3 233 232 228
3 234 233 229
3 229 233 228
3 235 221 222
3 235 229 221
3 234 229 235
3 235 222 364
3 438 172 185
3 450 436 438
3 331 438 185
3 450 438 331
3 435 450 442
3 435 436 450
3 435 442 441
3 434 435 441
3 433 441 440
3 433 434 441
3 433 440 439
3 432 433 439
3 431 439 232
3 431 432 439
3 304 431 233
3 233 431 232
3 303 304 234
3 234 304 233
3 302 303 234
3 235 302 234
3 312 364 357
3 364 302 235
3 312 302 364
3 312 357 321
3 185 182 184
3 185 172 182
3 175 438 436
3 175 172 438
3 429 436 435
3 429 437 436
3 429 435 434
3 428 429 434
3 427 434 433
3 427 428 434
3 296 427 432
3 432 427 433
3 295 432 431
3 295 296 432
3 294 295 304
3 304 295 431
3 293 294 303
3 303 294 304
3 292 293 303
3 302 292 303
3 316 287 312
3 312 292 302
3 321 319 316
3 312 321 316
3 176 181 180
3 172 180 182
3 180 177 176
3 172 177 180
3 119 177 175
3 175 177 172
3 437 175 436
3 437 119 175
3 136 429 428
3 136 437 429
3 428 126 136
3 428 291 126
3 427 291 428
3 296 291 427
3 296 299 291
3 295 301 296
3 296 301 299
3 294 301 295
3 294 305 301
3 293 305 294
3 288 289 293
3 293 289 305
3 292 288 293
3 292 287 288
3 287 292 312
3 65 287 316
3 316 307 65
3 316 319 307
3 176 183 178
3 181 176 178
3 179 183 176
3 177 179 176
3 179 177 119
3 137 179 119
3 134 119 437
3 134 137 119
3 123 134 136
3 136 134 437
3 136 126 123
3 133 134 123
3 289 55 283
3 305 289 283
3 50 289 288
3 54 55 289
3 50 288 287
3 50 54 289
3 50 287 65
3 49 51 65
3 49 307 322
3 49 65 307
3 381 178 183
3 179 125 183
3 183 125 384
3 183 384 381
3 125 179 137
3 120 125 137
3 115 137 134
3 115 120 137
3 117 135 133
3 133 115 134
3 133 121 117
3 133 123 121
3 55 64 285
3 55 47 64
3 48 47 54
3 54 47 55
3 51 54 50
3 51 48 54
3 52 51 49
3 65 51 50
3 49 63 52
3 49 322 63
3 125 128 384
3 384 128 406
3 128 125 120
3 132 128 120
3 135 132 120
3 115 135 120
3 138 116 117
3 133 135 115
3 131 138 118
3 118 138 117
3 118 117 121
3 62 131 129
3 129 131 118
3 61 62 56
3 56 62 129
3 60 61 64
3 47 60 64
3 64 61 56
3 58 47 48
3 58 60 47
3 52 48 51
3 46 58 48
3 482 46 52
3 52 46 48
3 63 478 482
3 52 63 482
3 128 414 406
3 406 414 424
3 415 414 132
3 132 414 128
3 116 132 135
3 116 415 132
3 127 116 138
3 117 116 135
3 130 127 138
3 131 130 138
3 19 131 62
3 19 130 131
3 66 62 61
3 66 19 62
3 67 61 60
3 67 66 61
3 59 60 58
3 59 67 60
3 57 58 46
3 57 59 58
3 481 46 482
3 481 57 46
3 482 477 481
3 482 478 477
3 424 413 406
3 415 408 414
3 414 408 424
3 408 403 424
3 409 408 415
3 116 127 415
3 10 409 127
3 127 409 415
3 9 10 130
3 130 10 127
3 9 130 19
3 8 9 19
3 8 19 66
3 7 8 66
3 53 7 67
3 67 7 66
3 489 53 59
3 59 53 67
3 490 489 57
3 57 489 59
3 57 481 490
3 490 481 497
3 490 497 476
3 477 497 481
3 423 403 408
3 409 412 423
3 408 409 423
3 412 421 423
3 5 412 10
3 10 412 409
3 4 10 9
3 4 5 10
3 3 9 8
3 3 4 9
3 2 8 7
3 2 3 8
3 1 7 53
3 1 2 7
3 0 53 489
3 0 1 53
3 489 475 0
3 0 475 474
3 490 475 489
3 476 475 490
3 420 421 412
3 5 420 412
3 5 6 420
3 4 6 5
3 4 23 6
3 3 23 4
3 3 12 23
3 2 12 3
3 2 14 12
3 1 14 2
3 1 16 14
3 16 15 14
3 0 16 1
3 474 16 0
