ply
format ascii 1.0
comment created by ic2ply
element vertex 498
property float32 x
property float32 y
property float32 z
element face 992
property list uint8 int32 vertex_indices
end_header
20.0346 26.4543 16.7583
18.9258 26.5488 17.0356
17.7868 26.6104 17.1174
16.6739 26.6684 17.1225
15.6032 26.6965 17.083
14.6374 26.7919 16.8893
15.0469 27.6611 16.0136
18.3211 25.6264 16.9976
17.1709 25.6834 16.9117
16.0066 25.7158 16.9566
14.8092 25.7435 17.097
16.6397 28.2882 15.1022
17.2259 27.5616 16.4958
17.7901 28.1997 15.1667
18.3706 27.4544 16.4071
18.9131 28.0377 14.9364
19.5218 27.3408 15.9958
17.2449 28.6843 13.4784
20.0392 27.8274 14.1995
16.6284 24.8093 16.2469
19.3867 28.3093 13.0746
18.3311 28.5639 13.3494
17.8762 28.7232 11.4647
16.1034 27.6206 16.385
16.1827 19.1891 9.56294
16.9002 15.6367 6.88252
17.9826 16.0421 6.93787
15.957 16.2914 7.06657
16.9941 16.6584 7.34174
18.0672 17.019 7.47097
19.0805 17.445 7.43488
18.9521 15.4379 6.98586
19.0822 16.4026 6.9275
17.0591 17.592 8.15546
18.1059 17.9791 8.27982
16.3197 20.2364 10.1942
20.1114 20.0021 8.11449
16.0728 18.2114 8.68107
17.1318 18.5281 9.05567
18.1965 18.9363 9.05827
20.1159 17.8702 7.19567
20.1225 18.8959 7.67578
19.1417 18.4265 8.09617
19.2106 19.4401 8.69244
18.3122 19.9351 9.61461
17.242 19.4877 9.8176
21.652 23.4439 17.1398
20.0117 22.623 16.0417
21.0469 22.4918 16.7877
22.6238 21.3288 17.0825
21.0288 20.6073 16.6031
21.5615 21.49 16.9538
22.1478 22.4045 17.1396
19.4575 25.546 17.1227
20.4824 21.5499 16.1562
19.5143 21.7327 15.2709
17.8706 23.0008 14.7655
21.1172 24.4252 17.1402
20.5401 23.5121 16.7916
20.0035 24.5367 16.949
19.4743 23.669 16.2111
18.3817 23.8145 15.6872
17.2491 23.9187 15.4175
23.1907 22.2873 16.5757
18.9889 22.831 15.3154
22.0366 20.3759 17.1226
17.7709 24.7527 16.3023
18.8942 24.6549 16.5825
16.8039 28.8024 11.5613
16.1012 28.7023 13.2199
12.906 27.7616 11.5859
13.5721 27.8195 9.78041
16.6138 28.0156 8.25552
16.8307 27.2362 7.16902
15.6554 27.6298 7.73613
14.8926 26.8798 7.12718
13.865 28.2401 12.0483
13.913 27.0746 7.73378
13.0391 27.0759 8.54225
16.693 26.1288 6.9242
15.4872 25.756 6.99121
15.8932 26.7127 6.92233
14.5352 27.7773 8.54236
16.3421 28.5545 9.87689
15.5892 28.6912 11.3028
14.9178 28.5515 12.7549
14.5451 28.3539 10.5112
15.5114 28.3015 14.7202
14.3487 26.0149 6.88228
15.433 28.2658 9.22789
17.3875 28.4587 9.52991
14.3801 28.1419 14.2542
21.9656 25.0812 7.52522
20.8537 25.2456 6.95012
20.1782 28.0444 11.7748
21.8267 26.6824 9.93907
18.9769 28.4811 11.3551
19.7205 25.2889 6.91022
18.3831 28.325 9.57351
20.9322 27.561 13.0836
20.3229 24.2228 7.06708
21.1614 27.418 10.9827
17.7237 26.6633 6.90947
18.6395 25.8887 6.90226
19.5339 26.3667 7.02236
20.5041 26.2353 7.32997
21.5341 26.0382 8.04145
22.4192 25.7975 9.19523
20.4032 27.6249 9.75245
19.5315 28.0571 9.86402
18.9227 27.7291 8.33295
20.9583 26.9175 8.74957
19.8658 27.2136 8.07387
17.7813 27.7454 7.87648
18.6778 27.0068 7.21641
13.2386 21.5888 16.0568
13.9567 23.6846 16.3338
14.5423 22.835 15.3754
15.5801 23.0211 14.8515
12.4618 20.1612 16.7338
12.5335 22.3333 16.7711
15.0638 21.9703 14.5254
16.1163 22.1753 14.0678
14.5066 20.843 14.7911
15.549 21.1041 14.0035
11.5387 21.9334 17.1336
15.2131 20.0178 14.4206
14.4017 24.7083 16.7359
11.781 23.0668 17.1399
16.7101 23.0772 14.6015
15.4867 24.8206 16.4454
16.1068 23.9464 15.4915
12.8751 23.4019 16.8559
14.1105 21.7302 15.2536
13.468 20.602 15.8106
13.5581 22.6498 16.0845
14.2255 19.7851 15.3074
12.4017 21.1834 16.7234
15.01 23.8572 15.8308
24.173 22.216 9.46465
20.0806 21.1784 8.28107
23.4254 20.7675 7.57912
21.6687 21.2229 7.02162
22.6374 21.782 6.9557
21.7344 23.314 6.8768
24.4297 22.6427 11.4408
22.7248 22.8847 7.14772
21.6755 22.3345 6.9496
23.5625 22.8264 8.21096
20.9261 20.623 7.49613
22.4352 24.0644 7.32766
20.7049 23.1034 7.27323
23.2797 23.8113 8.3364
20.9948 19.4627 7.25505
21.3164 24.2283 6.87918
22.9945 19.6381 7.25202
22.5703 20.6895 6.91749
21.8669 20.0013 6.91822
20.7987 21.8841 7.53365
23.5073 21.8448 7.7712
22.022 18.9231 6.885
24.0113 23.3293 9.88427
24.1275 21.1121 8.99605
9.51878 19.1416 9.63664
9.07205 19.9647 11.3952
9.27939 18.915 11.5001
9.91731 17.3315 12.626
10.5045 16.8488 14.2863
10.069 19.6736 7.9453
9.53818 18.2386 12.9698
9.25983 19.3619 13.3835
9.12467 20.376 13.4781
11.309 18.657 17.0245
9.68815 18.0471 10.5241
10.1404 18.5692 8.39749
12.3009 19.0777 17.0056
10.3808 20.4522 16.6565
11.3776 19.7605 17.1372
9.61284 21.0471 15.3826
11.4444 20.7852 17.1352
10.3999 19.4068 16.4757
9.63648 19.9535 15.2513
10.4713 18.3863 16.0976
10.5828 21.4664 16.8514
10.1196 17.7522 14.6975
11.0364 17.5195 16.2844
9.74598 18.8456 14.8634
19.1975 21.6993 9.04734
19.2779 20.5345 9.02797
15.3948 21.0674 9.92218
15.2091 22.8051 9.12421
15.7832 22.1005 9.86035
16.4406 23.0705 9.39639
18.8817 22.812 8.79318
18.2186 22.067 9.66607
17.7585 22.9225 9.35838
19.9212 22.3629 8.16098
16.945 22.2937 9.98523
18.4114 20.9805 9.78973
17.4654 21.4621 10.2291
16.4367 21.2646 10.3365
17.3754 20.4747 10.2439
17.6092 25.5747 7.13541
19.3077 24.3137 7.48033
15.7255 23.6689 8.67301
16.5332 24.2227 8.32206
17.3184 23.6718 8.82625
18.4366 23.7895 8.32451
19.6364 23.3835 7.87419
18.5576 24.9045 7.3809
17.5774 24.5911 7.89882
16.5356 25.1798 7.45145
19.6825 13.9065 13.7888
18.7717 13.4795 12.9953
20.7575 14.3286 10.8649
18.5747 13.8423 14.8945
17.6436 14.1217 15.9629
19.4154 14.3494 15.5089
18.5823 14.6651 16.5064
19.7124 15.161 16.5751
20.3967 14.6181 15.041
20.7635 15.5028 16.2271
21.7474 15.9615 15.6992
19.8156 14.0644 9.79289
21.3091 15.0162 14.4981
20.6839 14.2731 13.0621
16.6873 14.5712 16.6804
17.6717 15.1082 17.0348
18.7686 15.6395 17.1173
19.8605 16.133 17.1084
19.8338 13.787 11.801
17.6764 13.4614 14.1088
17.8194 16.1652 17.023
18.898 16.6837 16.9578
19.9632 17.1907 17.0272
20.9006 16.5066 16.9664
12.7238 20.4174 7.51155
14.4616 20.6942 9.17244
11.8998 19.8075 6.95233
13.0354 18.1966 7.11203
12.9311 19.2569 7.41331
15.9833 17.2915 7.79594
14.0157 16.5347 6.89653
13.986 18.7335 7.96282
15.1553 18.8765 8.86942
13.0828 15.9286 7.2041
10.9414 19.1644 7.09283
11.9866 18.7016 6.88515
14.9694 17.9749 8.03867
14.9802 16.961 7.28012
14.0071 17.6461 7.32535
13.0548 17.0774 6.87782
12.0608 17.6008 6.93518
14.9868 15.871 6.8772
13.6134 19.9535 8.20957
14.0344 15.431 7.14574
14.4532 19.6008 8.82199
15.3483 19.9678 9.66304
14.8932 13.9265 8.98311
16.7994 13.6842 8.95036
16.8201 13.2326 10.9612
15.7898 13.2395 11.9983
17.8282 13.4642 9.98118
17.8054 13.238 12.0456
19.6312 14.6756 8.05231
18.8578 13.5078 10.9757
14.1328 14.5016 8.24487
15.8515 13.48 9.86965
16.7398 13.2415 13.1302
15.7673 13.5084 14.2201
14.0127 13.6909 11.8016
14.8572 13.4851 13.0934
18.8085 13.9038 9.12417
17.7253 14.0477 8.21795
18.6173 14.5499 7.67473
16.815 14.5231 7.38782
17.7823 15.029 7.03172
15.0158 14.7867 7.3752
16.7025 13.7283 15.1879
14.7599 13.966 15.0397
15.8584 14.1423 8.04167
14.8473 13.5035 10.7998
15.9408 15.1771 6.95291
18.9377 20.9374 14.6435
17.8919 21.2764 13.9297
18.4806 22.0374 14.5091
17.3033 22.1822 14.0211
21.6141 19.4236 17.0699
20.6569 19.7641 16.4432
19.9298 20.5753 15.6099
16.2168 20.2619 13.8401
16.0988 19.2463 14.4349
20.8912 18.6787 16.9079
19.9004 19.2973 15.9775
19.0169 18.7117 15.6344
18.0206 18.149 15.5504
17.0718 18.6136 14.8758
16.6488 21.3377 13.6649
17.2333 20.5239 13.7281
17.1604 19.5524 14.1429
18.193 20.1732 14.2313
18.1399 19.1546 14.7652
21.0002 17.6267 17.1367
19.9626 18.2271 16.5689
18.9753 17.6934 16.3626
19.1226 19.831 15.0627
23.8777 20.2186 15.561
23.0479 20.2336 16.808
24.2448 19.2323 10.2153
23.6495 18.8773 8.5721
24.2792 21.186 14.5238
23.3433 17.3581 14.5088
21.9782 18.2271 17.0688
24.6163 20.8455 12.3337
24.5354 21.5333 10.8756
24.5122 21.9078 13.0382
22.5956 19.2216 16.9779
23.8794 17.6892 12.4512
22.8561 18.5244 7.46514
23.5465 19.23 15.8729
24.2597 18.6469 12.2541
23.0809 18.2908 16.1204
23.5823 21.2406 16.2053
24.4019 20.2039 13.8407
24.1747 19.2342 14.127
24.5137 19.6886 12.0415
23.8927 19.9496 8.57244
23.8104 18.2861 14.3987
24.4478 20.3661 10.3395
23.9271 18.1693 10.3009
11.1528 15.9058 14.0133
12.034 16.8748 16.7983
11.2346 16.5922 15.6027
13.0917 14.1109 11.9292
11.2197 17.0354 7.9136
13.7665 14.0433 9.91868
12.8601 15.1593 15.7257
10.5341 16.3262 12.2828
12.3532 15.4262 8.48137
12.7451 14.5477 10.0665
11.9897 15.8473 15.7155
13.2246 14.8943 8.35563
11.0505 18.092 7.35816
11.3782 15.372 12.3793
12.0146 15.1275 14.1518
13.8386 13.9414 13.7857
12.2054 14.6695 12.1512
11.5135 16.0182 8.81906
11.8474 15.1503 10.2951
11.0337 15.8387 10.768
10.3592 17.5933 8.88589
10.6959 16.5973 9.67101
12.1597 16.4883 7.38747
10.1189 17.0781 10.8442
12.8913 14.469 13.9954
22.6431 16.4732 14.8396
21.1223 17.3378 6.89149
22.639 17.4061 16.0939
23.242 17.7688 8.6593
22.9339 16.2947 10.6741
22.2782 15.439 11.3853
22.8007 16.032 12.8304
22.1265 15.5003 13.7904
20.5887 14.8069 8.79397
21.8586 16.9685 16.6387
22.1759 15.8766 9.28902
21.5563 14.7903 12.3235
21.1508 18.3625 6.9406
21.5181 15.0104 10.0683
23.4969 17.1764 10.5494
22.7522 16.873 8.75085
22.1965 17.6824 7.24348
20.8858 16.307 7.14689
20.0273 16.8098 6.89256
23.3626 16.7874 12.7303
20.0742 15.6073 7.21913
21.8827 16.598 7.70904
21.2442 15.573 8.21921
9.34179 23.1 13.1192
9.07057 22.1554 12.0549
9.80213 22.9683 15.1636
9.96562 22.0317 15.9751
9.83836 23.9909 9.91027
10.7897 21.4819 7.02591
10.7388 22.6997 16.7994
9.26577 22.1009 10.0752
9.3801 20.1823 9.45562
10.3641 23.6604 8.14464
10.4913 24.7877 9.11575
9.34726 23.138 10.9418
9.0107 21.0346 11.3016
9.36672 21.1643 9.355
9.34289 22.121 14.2655
9.09272 21.2944 13.3931
9.89524 21.8834 8.13573
9.83497 23.9611 14.1446
9.61998 24.083 12.049
10.0249 20.7632 7.81074
10.9117 20.2989 6.97504
10.5813 22.5937 7.3385
9.75677 22.9062 8.92941
10.1123 24.9583 11.1251
10.3919 23.6291 15.9452
11.7111 25.8724 15.7028
10.8093 25.6814 10.0327
10.6015 25.7425 12.4036
11.195 23.8925 16.7876
10.1424 24.904 13.3413
12.4874 25.2351 16.981
13.6516 25.4867 17.1407
11.9079 27.0852 11.7138
12.4384 27.2082 9.96317
13.7377 26.4867 16.8074
10.57 24.6406 15.3035
12.1922 24.1918 17.1325
13.2868 24.4626 17.0255
10.8991 25.5959 14.4938
11.411 26.4792 13.5471
11.6311 26.4406 9.61866
11.1789 26.4038 11.4739
13.9812 27.477 15.6622
13.0463 27.1239 15.3841
13.3441 27.8219 13.7598
12.7434 26.186 16.4832
11.4248 24.9484 16.3677
12.1342 26.6879 14.9036
12.389 27.3207 13.4034
16.0113 18.2799 15.2875
15.0732 18.9902 15.1133
14.0993 18.7088 15.9862
12.892 16.1374 16.8541
17.9309 17.1742 16.3899
16.9656 17.671 15.7792
15.9233 17.3035 16.2229
15.0008 17.9793 15.9594
14.0169 17.6523 16.6839
13.1165 18.3629 16.8066
13.2878 19.4775 16.2546
12.0686 17.9262 17.1282
16.8686 16.7018 16.6406
15.8234 16.2766 16.9706
14.9086 16.9432 16.7686
13.9034 16.5456 17.1289
15.7144 14.1805 16.0061
16.7473 15.6585 17.1322
15.7389 15.1655 17.0459
14.8117 15.8407 17.1397
13.8019 15.4469 16.7938
14.7418 14.7748 16.534
13.778 14.5413 15.5385
13.0234 17.2637 17.129
13.6116 21.0933 8.36851
11.7551 21.0069 6.95116
12.6512 21.4861 7.46224
11.6491 22.2189 6.89004
12.6556 22.4534 7.29984
11.2793 23.3645 7.01382
14.269 22.9553 8.35694
12.2372 23.3686 6.92139
12.9011 24.2755 6.93498
13.6189 22.1231 8.18647
13.3378 23.2395 7.50361
13.9235 24.1013 7.41847
11.8919 24.4617 7.01442
11.0437 24.432 7.69586
12.4413 25.3737 7.12203
14.5966 21.8317 9.17267
13.5394 25.161 6.89065
14.8144 23.8759 8.06726
14.6055 24.9796 7.19595
13.2729 26.1858 7.19928
12.2815 26.3088 8.16208
11.4335 25.4763 8.19535
15.5685 24.7029 7.69033
20.5922 27.15 15.2857
21.0653 26.2981 16.1705
21.9616 26.0626 15.2779
23.1184 24.1887 15.6492
23.6147 23.1828 15.4718
22.8987 24.8546 8.69619
23.1753 25.3515 10.6443
22.2425 24.4091 16.6809
22.7145 23.3314 16.7474
24.0048 22.175 15.0995
21.5111 26.8882 14.2715
22.5765 26.2249 11.2743
21.8781 26.9397 12.2271
23.0856 25.5851 12.8548
22.4328 26.233 13.5597
20.5832 25.4477 17.0784
21.6712 25.308 16.5902
23.3496 24.8315 14.0825
24.2426 22.936 13.5705
23.6978 24.6829 12.1003
23.6436 24.354 10.0866
24.1373 23.7039 11.8562
23.8469 23.9175 13.9051
22.6486 25.2895 15.2192
3 277 282 280
3 25 275 282
3 282 275 280
3 274 273 276
3 276 273 275
3 273 274 272
3 352 251 245
3 255 242 253
3 255 245 242
3 282 253 27
3 282 277 253
3 277 255 253
3 26 276 25
3 25 276 275
3 31 276 26
3 31 274 276
3 264 274 31
3 32 375 31
3 264 272 274
3 377 363 375
3 375 264 31
3 377 375 372
3 342 252 334
3 352 252 251
3 242 245 251
3 352 334 252
3 250 242 251
3 250 249 242
3 249 253 242
3 27 25 282
3 249 27 253
3 28 25 27
3 28 26 25
3 29 26 28
3 29 32 26
3 32 31 26
3 30 32 29
3 373 32 30
3 375 32 373
3 372 375 373
3 376 377 372
3 371 370 376
3 356 376 372
3 370 371 358
3 246 247 342
3 342 247 252
3 240 239 247
3 247 239 252
3 239 251 252
3 250 251 239
3 40 373 30
3 356 373 40
3 41 367 40
3 356 372 373
3 371 376 356
3 367 371 356
3 318 371 160
3 318 358 371
3 397 398 168
3 246 398 238
3 247 246 238
3 246 168 398
3 236 240 238
3 238 240 247
3 367 356 40
3 160 371 367
3 153 160 367
3 156 155 157
3 155 160 157
3 155 318 160
3 397 394 383
3 398 397 383
3 452 398 383
3 452 238 398
3 453 236 452
3 452 236 238
3 142 143 156
3 157 142 156
3 141 156 143
3 156 141 155
3 141 326 155
3 326 141 162
3 394 399 383
3 394 400 399
3 454 383 399
3 454 452 383
3 455 453 454
3 454 453 452
3 147 143 142
3 147 146 143
3 148 159 146
3 143 159 141
3 146 159 143
3 162 141 159
3 387 399 400
3 456 399 387
3 456 454 399
3 458 454 456
3 455 454 458
3 459 461 458
3 461 455 458
3 461 459 462
3 100 154 151
3 151 154 144
3 146 147 144
3 147 151 144
3 150 152 146
3 144 150 146
3 464 463 456
3 456 463 458
3 459 458 463
3 465 459 463
3 467 459 465
3 467 469 462
3 467 462 459
3 468 462 469
3 209 97 203
3 100 97 93
3 154 100 93
3 100 203 97
3 92 154 93
3 92 150 154
3 479 150 92
3 154 150 144
3 472 463 464
3 465 463 472
3 471 465 472
3 470 465 471
3 467 465 470
3 88 467 470
3 469 467 88
3 75 80 88
3 80 469 88
3 202 211 79
3 79 80 81
3 102 202 79
3 102 103 202
3 103 102 114
3 97 209 103
3 97 103 104
3 105 97 104
3 105 93 97
3 106 93 105
3 106 107 92
3 106 92 93
3 479 92 107
3 78 470 471
3 77 470 78
3 77 88 470
3 75 88 77
3 75 81 80
3 74 73 81
3 75 74 81
3 73 79 81
3 113 114 102
3 73 113 102
3 73 102 79
3 112 104 114
3 114 104 103
3 111 105 112
3 112 105 104
3 106 105 111
3 72 113 73
3 72 73 74
3 281 267 261
3 260 261 267
3 259 260 267
3 262 260 259
3 262 263 260
3 263 262 265
3 338 341 339
3 335 341 266
3 335 339 341
3 280 258 277
3 280 267 258
3 258 266 277
3 258 335 266
3 275 259 280
3 280 259 267
3 273 262 259
3 275 273 259
3 265 262 272
3 264 223 272
3 272 262 273
3 223 265 272
3 214 223 363
3 368 214 363
3 214 368 366
3 349 347 348
3 245 341 338
3 352 245 338
3 338 347 352
3 338 348 347
3 255 341 245
3 255 266 341
3 266 255 277
3 363 223 264
3 368 363 377
3 375 363 264
3 365 368 377
3 376 365 377
3 360 368 365
3 360 366 368
3 360 365 359
3 353 350 351
3 347 351 334
3 334 350 342
3 351 350 334
3 349 351 347
3 347 334 352
3 249 250 248
3 241 27 249
3 248 241 249
3 28 27 241
3 33 28 241
3 34 29 33
3 33 29 28
3 30 29 34
3 365 376 370
3 369 374 359
3 358 369 370
3 369 359 370
3 370 359 365
3 374 369 317
3 173 174 350
3 353 173 350
3 350 174 342
3 342 174 246
3 239 240 243
3 244 248 243
3 243 250 239
3 248 250 243
3 37 248 244
3 37 241 248
3 38 33 37
3 37 33 241
3 39 34 38
3 38 34 33
3 42 30 34
3 39 42 34
3 42 40 30
3 41 40 42
3 369 358 329
3 309 358 318
3 320 317 329
3 329 317 369
3 164 386 163
3 168 163 386
3 174 163 168
3 397 168 386
3 173 163 174
3 174 168 246
3 243 240 254
3 254 240 236
3 256 243 254
3 256 244 243
3 257 244 256
3 257 24 244
3 24 37 244
3 24 38 37
3 24 45 38
3 39 38 45
3 44 39 45
3 43 39 44
3 36 41 43
3 43 42 39
3 43 41 42
3 36 153 41
3 153 367 41
3 157 160 153
3 329 358 309
3 309 318 155
3 308 329 309
3 308 320 329
3 390 391 386
3 164 390 386
3 394 397 391
3 391 397 386
3 254 236 451
3 451 236 453
3 237 254 451
3 237 256 254
3 237 257 256
3 237 189 257
3 188 43 44
3 36 43 188
3 187 140 188
3 140 36 188
3 149 153 36
3 140 149 36
3 153 149 157
3 157 149 142
3 309 155 326
3 328 308 326
3 162 328 326
3 308 309 326
3 390 385 391
3 390 379 385
3 400 394 385
3 385 394 391
3 451 453 460
3 460 453 455
3 466 237 451
3 460 466 451
3 189 237 466
3 190 191 466
3 191 189 466
3 191 190 192
3 195 193 194
3 187 193 196
3 140 187 196
3 187 194 193
3 158 140 196
3 158 149 140
3 142 158 147
3 142 149 158
3 139 148 161
3 139 159 148
3 139 314 162
3 139 162 159
3 389 385 379
3 389 400 385
3 389 382 400
3 382 387 400
3 382 388 387
3 464 387 388
3 460 455 461
3 457 461 462
3 457 460 461
3 466 460 457
3 468 190 457
3 457 190 466
3 192 190 204
3 205 206 192
3 205 192 204
3 193 195 207
3 207 195 206
3 210 206 205
3 208 193 207
3 208 196 193
3 196 208 151
3 158 196 151
3 151 208 100
3 158 151 147
3 161 148 152
3 152 148 146
3 494 161 152
3 495 145 161
3 401 404 388
3 382 401 388
3 387 464 456
3 388 404 472
3 457 462 468
3 473 468 469
3 473 204 468
3 204 190 468
3 211 205 473
3 473 205 204
3 210 205 211
3 210 207 206
3 203 207 209
3 203 208 207
3 207 210 209
3 208 203 100
3 152 479 494
3 152 150 479
3 493 495 494
3 494 495 161
3 405 404 401
3 418 472 404
3 405 419 404
3 388 472 464
3 419 418 404
3 471 472 418
3 473 469 80
3 211 80 79
3 211 473 80
3 209 202 103
3 210 211 202
3 210 202 209
3 107 106 95
3 485 107 95
3 485 480 107
3 480 479 107
3 480 494 479
3 493 494 480
3 410 418 419
3 411 78 471
3 410 70 411
3 418 410 411
3 418 411 471
3 71 78 411
3 71 77 78
3 82 77 71
3 82 75 77
3 74 75 82
3 114 113 110
3 109 112 110
3 110 112 114
3 108 111 112
3 109 108 112
3 101 111 108
3 101 95 111
3 95 106 111
3 486 95 101
3 485 95 486
3 76 71 70
3 86 71 76
3 70 71 411
3 82 71 86
3 89 82 86
3 89 74 82
3 89 83 72
3 89 72 74
3 98 113 90
3 90 113 72
3 110 113 98
3 96 109 98
3 98 109 110
3 94 109 96
3 94 108 109
3 101 108 94
3 345 270 271
3 269 271 261
3 261 271 281
3 267 281 258
3 268 269 261
3 260 268 261
3 268 260 263
3 231 268 263
3 213 263 265
3 230 213 265
3 213 231 263
3 217 215 212
3 340 330 344
3 333 354 346
3 339 333 346
3 339 346 348
3 281 270 335
3 335 270 333
3 335 333 339
3 281 335 258
3 230 265 223
3 230 223 214
3 225 212 230
3 225 230 214
3 225 214 366
3 224 225 366
3 332 167 330
3 343 349 348
3 346 343 348
3 343 337 349
3 343 330 337
3 339 348 338
3 362 224 366
3 360 362 366
3 361 360 359
3 361 362 360
3 337 353 351
3 337 167 166
3 337 166 353
3 337 351 349
3 374 361 359
3 374 355 361
3 311 355 374
3 317 311 374
3 186 170 169
3 166 173 353
3 166 169 173
3 169 165 173
3 311 317 327
3 327 317 320
3 165 170 164
3 163 165 164
3 170 171 164
3 165 163 173
3 24 257 35
3 201 45 35
3 35 45 24
3 44 45 201
3 320 308 325
3 324 320 325
3 327 320 324
3 324 325 323
3 171 390 164
3 171 393 390
3 35 189 200
3 35 257 189
3 201 200 199
3 201 35 200
3 198 44 201
3 199 198 201
3 198 188 44
3 194 187 198
3 313 328 314
3 325 308 328
3 313 323 325
3 328 313 325
3 393 379 390
3 393 392 379
3 200 189 191
3 197 191 192
3 197 199 200
3 197 200 191
3 198 199 194
3 194 199 197
3 194 197 195
3 188 198 187
3 314 139 145
3 314 328 162
3 315 314 145
3 315 313 314
3 378 379 392
3 378 396 389
3 378 389 379
3 382 389 396
3 206 195 192
3 195 197 192
3 492 495 496
3 492 145 495
3 145 139 161
3 315 145 492
3 380 395 378
3 396 401 382
3 396 395 407
3 396 407 401
3 496 493 491
3 496 495 493
3 405 401 407
3 416 405 407
3 417 419 405
3 416 417 405
3 487 485 488
3 487 480 485
3 487 493 480
3 487 491 493
3 410 419 417
3 425 426 417
3 426 70 410
3 417 426 410
3 486 101 99
3 484 486 99
3 488 486 484
3 488 485 486
3 422 76 70
3 426 422 70
3 91 76 422
3 91 85 76
3 85 86 76
3 85 84 86
3 84 89 86
3 83 89 84
3 83 90 72
3 68 90 83
3 22 98 90
3 96 98 22
3 21 96 22
3 20 96 21
3 18 94 20
3 20 94 96
3 99 101 94
3 18 99 94
3 69 84 85
3 68 83 84
3 69 68 84
3 17 22 68
3 68 22 90
3 21 22 17
3 271 270 281
3 443 279 269
3 271 279 345
3 269 279 271
3 278 269 268
3 278 443 269
3 215 216 231
3 231 216 278
3 231 278 268
3 212 215 213
3 213 215 231
3 212 213 230
3 344 343 346
3 354 344 346
3 354 336 344
3 336 340 344
3 345 333 270
3 345 354 333
3 449 354 345
3 449 345 279
3 216 215 218
3 219 218 217
3 217 218 215
3 220 212 225
3 220 219 217
3 220 217 212
3 221 220 224
3 224 220 225
3 330 167 337
3 340 332 330
3 332 340 331
3 343 344 330
3 340 430 331
3 430 340 336
3 222 224 362
3 222 221 224
3 355 362 361
3 355 222 362
3 332 185 167
3 167 185 184
3 167 184 166
3 185 332 331
3 364 222 355
3 357 364 355
3 321 357 311
3 311 357 355
3 169 170 165
3 184 169 166
3 184 186 169
3 182 186 184
3 321 327 319
3 321 311 327
3 186 180 181
3 170 186 181
3 170 181 171
3 180 186 182
3 291 290 126
3 299 298 290
3 291 299 290
3 301 300 299
3 299 300 298
3 305 300 301
3 319 327 324
3 306 319 324
3 307 319 306
3 306 324 323
3 181 178 171
3 171 178 393
3 123 126 124
3 124 126 290
3 297 290 298
3 297 124 290
3 284 297 298
3 300 284 298
3 283 300 305
3 283 284 300
3 322 306 310
3 322 307 306
3 306 323 310
3 310 323 313
3 178 392 393
3 392 381 380
3 178 381 392
3 384 380 381
3 121 123 124
3 122 121 124
3 297 122 124
3 297 286 122
3 285 286 284
3 284 286 297
3 55 285 283
3 283 285 284
3 63 322 483
3 483 322 310
3 310 315 483
3 310 313 315
3 380 378 392
3 380 402 395
3 406 402 384
3 384 402 380
3 121 122 118
3 129 122 286
3 129 118 122
3 56 129 286
3 285 56 286
3 56 285 64
3 492 496 478
3 63 483 478
3 483 492 478
3 315 492 483
3 395 396 378
3 406 413 402
3 402 413 395
3 413 407 395
3 478 496 477
3 477 496 491
3 424 416 413
3 413 416 407
3 403 416 424
3 403 417 416
3 497 488 476
3 497 487 488
3 477 491 497
3 497 491 487
3 425 417 403
3 423 425 403
3 421 425 423
3 421 426 425
3 475 484 474
3 474 484 99
3 476 484 475
3 476 488 484
3 420 422 421
3 421 422 426
3 6 91 420
3 420 91 422
3 87 91 6
3 23 87 6
3 87 85 91
3 12 11 23
3 23 11 87
3 14 13 12
3 12 13 11
3 14 15 13
3 13 15 21
3 15 20 21
3 16 18 15
3 15 18 20
3 474 18 16
3 474 99 18
3 69 85 87
3 11 69 87
3 11 17 69
3 13 17 11
3 69 17 68
3 21 17 13
3 448 279 443
3 226 443 278
3 226 445 443
3 226 278 216
3 449 336 354
3 447 336 449
3 448 447 449
3 448 449 279
3 448 446 447
3 445 446 448
3 444 445 226
3 443 445 448
3 227 216 218
3 227 226 216
3 444 226 227
3 228 218 219
3 228 227 218
3 221 219 220
3 229 228 219
3 229 219 221
3 450 331 430
3 447 430 336
3 447 442 430
3 442 450 430
3 441 442 446
3 446 442 447
3 440 446 445
3 440 441 446
3 440 445 444
3 439 440 444
3 232 444 227
3 232 439 444
3 232 227 228
3 233 232 228
3 234 233 229
3 229 233 228
3 235 221 222
3 235 229 221
3 234 229 235
3 235 222 364
3 438 172 185
3 450 436 438
3 331 438 185
3 450 438 331
3 435 450 442
3 435 436 450
3 435 442 441
3 434 435 441
3 433 441 440
3 433 434 441
3 433 440 439
3 432 433 439
3 431 439 232
3 431 432 439
3 304 431 233
3 233 431 232
3 303 304 234
3 234 304 233
3 302 303 234
3 235 302 234
3 312 364 357
3 364 302 235
3 312 302 364
3 312 357 321
3 185 182 184
3 185 172 182
3 175 438 436
3 175 172 438
3 429 436 435
3 429 437 436
3 429 435 434
3 428 429 434
3 427 434 433
3 427 428 434
3 296 427 432
3 432 427 433
3 295 432 431
3 295 296 432
3 294 295 304
3 304 295 431
3 293 294 303
3 303 294 304
3 292 293 303
3 302 292 303
3 316 287 312
3 312 292 302
3 321 319 316
3 312 321 316
3 176 181 180
3 172 180 182
3 180 177 176
3 172 177 180
3 119 177 175
3 175 177 172
3 437 175 436
3 437 119 175
3 136 429 428
3 136 437 429
3 428 126 136
3 428 291 126
3 427 291 428
3 296 291 427
3 296 299 291
3 295 301 296
3 296 301 299
3 294 301 295
3 294 305 301
3 293 305 294
3 288 289 293
3 293 289 305
3 292 288 293
3 292 287 288
3 287 292 312
3 65 287 316
3 316 307 65
3 316 319 307
3 176 183 178
3 181 176 178
3 179 183 176
3 177 179 176
3 179 177 119
3 137 179 119
3 134 119 437
3 134 137 119
3 123 134 136
3 136 134 437
3 136 126 123
3 133 134 123
3 289 55 283
3 305 289 283
3 50 289 288
3 54 55 289
3 50 288 287
3 50 54 289
3 50 287 65
3 49 51 65
3 49 307 322
3 49 65 307
3 381 178 183
3 179 125 183
3 183 125 384
3 183 384 381
3 125 179 137
3 120 125 137
3 115 137 134
3 115 120 137
3 117 135 133
3 133 115 134
3 133 121 117
3 133 123 121
3 55 64 285
3 55 47 64
3 48 47 54
3 54 47 55
3 51 54 50
3 51 48 54
3 52 51 49
3 65 51 50
3 49 63 52
3 49 322 63
3 125 128 384
3 384 128 406
3 128 125 120
3 132 128 120
3 135 132 120
3 115 135 120
3 138 116 117
3 133 135 115
3 131 138 118
3 118 138 117
3 118 117 121
3 62 131 129
3 129 131 118
3 61 62 56
3 56 62 129
3 60 61 64
3 47 60 64
3 64 61 56
3 58 47 48
3 58 60 47
3 52 48 51
3 46 58 48
3 482 46 52
3 52 46 48
3 63 478 482
3 52 63 482
3 128 414 406
3 406 414 424
3 415 414 132
3 132 414 128
3 116 132 135
3 116 415 132
3 127 116 138
3 117 116 135
3 130 127 138
3 131 130 138
3 19 131 62
3 19 130 131
3 66 62 61
3 66 19 62
3 67 61 60
3 67 66 61
3 59 60 58
3 59 67 60
3 57 58 46
3 57 59 58
3 481 46 482
3 481 57 46
3 482 477 481
3 482 478 477
3 424 413 406
3 415 408 414
3 414 408 424
3 408 403 424
3 409 408 415
3 116 127 415
3 10 409 127
3 127 409 415
3 9 10 130
3 130 10 127
3 9 130 19
3 8 9 19
3 8 19 66
3 7 8 66
3 53 7 67
3 67 7 66
3 489 53 59
3 59 53 67
3 490 489 57
3 57 489 59
3 57 481 490
3 490 481 497
3 490 497 476
3 477 497 481
3 423 403 408
3 409 412 423
3 408 409 423
3 412 421 423
3 5 412 10
3 10 412 409
3 4 10 9
3 4 5 10
3 3 9 8
3 3 4 9
3 2 8 7
3 2 3 8
3 1 7 53
3 1 2 7
3 0 53 489
3 0 1 53
3 489 475 0
3 0 475 474
3 490 475 489
3 476 475 490
3 420 421 412
3 5 420 412
3 5 6 420
3 4 6 5
3 4 23 6
3 3 23 4
3 3 12 23
3 2 12 3
3 2 14 12
3 1 14 2
3 1 16 14
3 16 15 14
3 0 16 1
3 474 16 0
