ply
format ascii 1.0
comment created by platoply
element vertex 216
property float32 x
property float32 y
property float32 z
element face 216
property list uint8 int32 vertex_indices
end_header
-1 -1 -1
1 1 -1
1 -1 1
-1 1 1
2 -1 -1
4 1 -1
4 -1 1
2 1 1
-8 -5 -5
-6 -3 -5
-6 -5 -3
-8 -3 -3
-8 -5 -1
-6 -3 -1
-6 -5 1
-8 -3 1
-8 -5 3
-6 -3 3
-6 -5 5
-8 -3 5
-8 -1 -5
-6 1 -5
-6 -1 -3
-8 1 -3
-8 -1 -1
-6 1 -1
-6 -1 1
-8 1 1
-8 -1 3
-6 1 3
-6 -1 5
-8 1 5
-8 3 -5
-6 5 -5
-6 3 -3
-8 5 -3
-8 3 -1
-6 5 -1
-6 3 1
-8 5 1
-8 3 3
-6 5 3
-6 3 5
-8 5 5
-1 -5 -5
1 -3 -5
1 -5 -3
-1 -3 -3
-1 -5 -1
1 -3 -1
1 -5 1
-1 -3 1
-1 -5 3
1 -3 3
1 -5 5
-1 -3 5
-1 -1 -5
1 1 -5
1 -1 -3
-1 1 -3
-1 -1 3
1 1 3
1 -1 5
-1 1 5
-1 3 -5
1 5 -5
1 3 -3
-1 5 -3
-1 3 -1
1 5 -1
1 3 1
-1 5 1
-1 3 3
1 5 3
1 3 5
-1 5 5
6 -5 -5
8 -3 -5
8 -5 -3
6 -3 -3
6 -5 -1
8 -3 -1
8 -5 1
6 -3 1
6 -5 3
8 -3 3
8 -5 5
6 -3 5
6 -1 -5
8 1 -5
8 -1 -3
6 1 -3
6 -1 -1
8 1 -1
8 -1 1
6 1 1
6 -1 3
8 1 3
8 -1 5
6 1 5
6 3 -5
8 5 -5
8 3 -3
6 5 -3
6 3 -1
8 5 -1
8 3 1
6 5 1
6 3 3
8 5 3
8 3 5
6 5 5
-5 -5 -5
-3 -3 -5
-3 -5 -3
-5 -3 -3
-5 -5 -1
-3 -3 -1
-3 -5 1
-5 -3 1
-5 -5 3
-3 -3 3
-3 -5 5
-5 -3 5
-5 -1 -5
-3 1 -5
-3 -1 -3
-5 1 -3
-5 -1 -1
-3 1 -1
-3 -1 1
-5 1 1
-5 -1 3
-3 1 3
-3 -1 5
-5 1 5
-5 3 -5
-3 5 -5
-3 3 -3
-5 5 -3
-5 3 -1
-3 5 -1
-3 3 1
-5 5 1
-5 3 3
-3 5 3
-3 3 5
-5 5 5
2 -5 -5
4 -3 -5
4 -5 -3
2 -3 -3
2 -5 -1
4 -3 -1
4 -5 1
2 -3 1
2 -5 3
4 -3 3
4 -5 5
2 -3 5
2 -1 -5
4 1 -5
4 -1 -3
2 1 -3
2 -1 3
4 1 3
4 -1 5
2 1 5
2 3 -5
4 5 -5
4 3 -3
2 5 -3
2 3 -1
4 5 -1
4 3 1
2 5 1
2 3 3
4 5 3
4 3 5
2 5 5
9 -5 -5
11 -3 -5
11 -5 -3
9 -3 -3
9 -5 -1
11 -3 -1
11 -5 1
9 -3 1
9 -5 3
11 -3 3
11 -5 5
9 -3 5
9 -1 -5
11 1 -5
11 -1 -3
9 1 -3
9 -1 -1
11 1 -1
11 -1 1
9 1 1
9 -1 3
11 1 3
11 -1 5
9 1 5
9 3 -5
11 5 -5
11 3 -3
9 5 -3
9 3 -1
11 5 -1
11 3 1
9 5 1
9 3 3
11 5 3
11 3 5
9 5 5
3 1 2 3
3 9 10 11
3 13 14 15
3 17 18 19
3 21 22 23
3 25 26 27
3 29 30 31
3 33 34 35
3 37 38 39
3 41 42 43
3 45 46 47
3 49 50 51
3 53 54 55
3 57 58 59
3 61 62 63
3 65 66 67
3 69 70 71
3 73 74 75
3 77 78 79
3 81 82 83
3 85 86 87
3 89 90 91
3 93 94 95
3 97 98 99
3 101 102 103
3 105 106 107
3 109 110 111
3 1 0 2
3 9 8 10
3 13 12 14
3 17 16 18
3 21 20 22
3 25 24 26
3 29 28 30
3 33 32 34
3 37 36 38
3 41 40 42
3 45 44 46
3 49 48 50
3 53 52 54
3 57 56 58
3 61 60 62
3 65 64 66
3 69 68 70
3 73 72 74
3 77 76 78
3 81 80 82
3 85 84 86
3 89 88 90
3 93 92 94
3 97 96 98
3 101 100 102
3 105 104 106
3 109 108 110
3 3 2 0
3 11 10 8
3 15 14 12
3 19 18 16
3 23 22 20
3 27 26 24
3 31 30 28
3 35 34 32
3 39 38 36
3 43 42 40
3 47 46 44
3 51 50 48
3 55 54 52
3 59 58 56
3 63 62 60
3 67 66 64
3 71 70 68
3 75 74 72
3 79 78 76
3 83 82 80
3 87 86 84
3 91 90 88
3 95 94 92
3 99 98 96
3 103 102 100
3 107 106 104
3 111 110 108
3 0 1 3
3 8 9 11
3 12 13 15
3 16 17 19
3 20 21 23
3 24 25 27
3 28 29 31
3 32 33 35
3 36 37 39
3 40 41 43
3 44 45 47
3 48 49 51
3 52 53 55
3 56 57 59
3 60 61 63
3 64 65 67
3 68 69 71
3 72 73 75
3 76 77 79
3 80 81 83
3 84 85 87
3 88 89 91
3 92 93 95
3 96 97 99
3 100 101 103
3 104 105 107
3 108 109 111
3 5 6 7
3 113 114 115
3 117 118 119
3 121 122 123
3 125 126 127
3 129 130 131
3 133 134 135
3 137 138 139
3 141 142 143
3 145 146 147
3 149 150 151
3 153 154 155
3 157 158 159
3 161 162 163
3 165 166 167
3 169 170 171
3 173 174 175
3 177 178 179
3 181 182 183
3 185 186 187
3 189 190 191
3 193 194 195
3 197 198 199
3 201 202 203
3 205 206 207
3 209 210 211
3 213 214 215
3 5 4 6
3 113 112 114
3 117 116 118
3 121 120 122
3 125 124 126
3 129 128 130
3 133 132 134
3 137 136 138
3 141 140 142
3 145 144 146
3 149 148 150
3 153 152 154
3 157 156 158
3 161 160 162
3 165 164 166
3 169 168 170
3 173 172 174
3 177 176 178
3 181 180 182
3 185 184 186
3 189 188 190
3 193 192 194
3 197 196 198
3 201 200 202
3 205 204 206
3 209 208 210
3 213 212 214
3 7 6 4
3 115 114 112
3 119 118 116
3 123 122 120
3 127 126 124
3 131 130 128
3 135 134 132
3 139 138 136
3 143 142 140
3 147 146 144
3 151 150 148
3 155 154 152
3 159 158 156
3 163 162 160
3 167 166 164
3 171 170 168
3 175 174 172
3 179 178 176
3 183 182 180
3 187 186 184
3 191 190 188
3 195 194 192
3 199 198 196
3 203 202 200
3 207 206 204
3 211 210 208
3 215 214 212
3 4 5 7
3 12 13 15
3 16 17 19
3 20 21 23
3 24 25 27
3 28 29 31
3 32 33 35
3 36 37 39
3 40 41 43
3 44 45 47
3 48 49 51
3 52 53 55
3 56 57 59
3 60 61 63
3 64 65 67
3 68 69 71
3 72 73 75
3 76 77 79
3 80 81 83
3 84 85 87
3 88 89 91
3 92 93 95
3 96 97 99
3 100 101 103
3 104 105 107
3 108 109 111
3 112 113 115
